# xmcd
# Copyright (C) 1995-1998 Ti Kan
#
# Track frame offsets:
#       150
#       27636
#       52600
#       74170
#       93821
#       124383
#       145041
#       167420
#       182552
#       201990
#       226349
#       238666
#
# Disc length: 3404 seconds
#
# Revision: 14
# Processed by: cddbd v1.5.2PL0 Copyright (c) Steve Scherf et al.
# Submitted via: CD-Transfer v1.0
#
DISCID=a30d4a0c
DTITLE=NUMBERS - 
DYEAR=05
DGENRE=
TTITLE0=chicago
TTITLE1=cause =time
TTITLE2=left and leaving
TTITLE3=insistor
TTITLE4=come on! feel the illinoise!
TTITLE5=all good naysayers, speak up! or forever hold...
TTITLE6=bleak
TTITLE7=carving and searching
TTITLE8=big ships
TTITLE9=precursor
TTITLE10=revolt on (=/) revolution
TTITLE11=beast life
EXTD=
EXTT0=
EXTT1=
EXTT2=
EXTT3=
EXTT4=
EXTT5=
EXTT6=
EXTT7=
EXTT8=
EXTT9=
EXTT10=
EXTT11=
PLAYORDER=
